<?xml version="1.0" encoding="UTF-8" standalone="no"?>
<!-- Created with Inkscape (http://www.inkscape.org/) -->

<svg
   width="85.057655mm"
   height="104.94592mm"
   viewBox="0 0 85.05766 104.9459"
   version="1.1"
   id="svg1"
   xmlns="http://www.w3.org/2000/svg"
   xmlns:svg="http://www.w3.org/2000/svg">
  <defs
     id="defs1">
    <clipPath
       clipPathUnits="userSpaceOnUse"
       id="clipPath3">
      <path
         id="path3"
         style="fill:#ffffff;fill-opacity:1;stroke-width:1"
         d="m 1152.5162,1144.6366 v 223.7365 h 174.9133 l -50.6699,-18.6107 c -18.4735,-6.7838 -32.8059,-24.3126 -32.8059,-46.9229 0,-28.5331 21.3863,-49.9212 49.9194,-49.9212 26.5072,0 46.3699,19.1737 49.501,43.302 l 8.6264,66.4483 9.0427,5.7045 h 46.5887 v -223.7365 z" />
    </clipPath>
    <clipPath
       clipPathUnits="userSpaceOnUse"
       id="clipPath4">
      <path
         id="path4"
         style="fill:#ffffff;fill-opacity:1;stroke-width:1"
         d="m 79.16342,45.492761 v 7.831569 c 1.324549,-3.680309 4.151939,-6.507631 7.83259,-7.831569 z m 17.449059,0 c 4.701281,1.713219 7.980281,5.912548 8.626351,10.891329 l 2.33422,17.98029 15.33188,9.67177 c 1.38078,0.871119 2.54876,2.119749 3.28249,3.647839 V 45.492761 Z m -4.768178,2.8267 c -6.013871,0 -9.855221,3.84184 -9.855221,9.855729 0,4.606621 2.78034,7.90978 6.4823,9.269201 l 15.24609,5.597588 -2.09961,-16.187118 c -0.63412,-4.886751 -4.302859,-8.5354 -9.773559,-8.5354 z M 79.16342,62.89015 v 36.25102 h 35.55338 c -2.13561,-1.02226 -3.71551,-2.88503 -4.45657,-4.972309 l -6.05648,-17.05632 -16.990181,-6.240452 c -3.62054,-1.329518 -6.65307,-4.18411 -8.050149,-7.981939 z m 29.78268,16.657899 4.75578,13.398151 c 0.65598,1.847649 2.31011,3.369299 4.69739,3.369299 1.60711,0 2.79185,-0.51676 3.6189,-1.343588 0.82704,-0.826842 1.34358,-2.011651 1.34358,-3.61941 0,-2.000901 -0.87425,-3.260212 -2.40605,-4.226621 z m 17.24132,15.7148 c -0.39614,0.858851 -0.92896,1.632961 -1.58698,2.290821 -0.65807,0.657889 -1.43284,1.191329 -2.29185,1.5875 h 3.87883 z" />
    </clipPath>
  </defs>
  <g
     id="layer1"
     transform="translate(-304.91901,-225.32084)">
    <g
       id="g4">
      <path
         d="M 371.4197,305.20653 387.26387,277.76329 371.4197,250.32005"
         style="fill:none;stroke:#2081b9;stroke-width:5.114;stroke-linecap:round;stroke-linejoin:round;stroke-miterlimit:3.9;stroke-dasharray:none;stroke-dashoffset:12.7729;stroke-opacity:1"
         id="path1" />
      <path
         id="path2-7"
         transform="matrix(0.27059076,0,0,0.27059076,-7.2117019,-62.235315)"
         mask="none"
         d="m 1397.1834,1256.5049 -58.5548,101.4199 h -117.1095 l -58.5548,-101.4199 58.5548,-101.4199 h 117.1095 z"
         style="fill:none;fill-opacity:1;stroke:#2081b9;stroke-width:18.8973;stroke-linecap:round;stroke-linejoin:round;stroke-miterlimit:3.9;stroke-dasharray:none;stroke-dashoffset:12.7729;stroke-opacity:1"
         clip-path="url(#clipPath3)" />
      <path
         id="path7-8-7-7-1"
         style="fill:#2081b9;fill-opacity:1;fill-rule:nonzero;stroke:none;stroke-width:3.65206;stroke-miterlimit:3.9;stroke-dasharray:none;stroke-opacity:1"
         d="m 91.845007,46.492988 c -6.86733,0 -11.68182,4.814487 -11.68182,11.681825 0,5.362378 3.32908,9.386208 7.67945,10.983741 l 17.795633,6.534916 6.34303,17.86484 c 0.88836,2.502175 3.23451,4.582618 6.41748,4.582618 4.04121,0 6.78861,-2.745385 6.78861,-6.788199 0,-2.610477 -1.30718,-4.541338 -3.25682,-5.771358 L 105.87152,75.449996 103.42819,56.619862 C 102.68751,50.91204 98.166657,46.492988 91.845007,46.492988 Z"
         mask="none"
         transform="translate(251.05409,232.12583)"
         clip-path="url(#clipPath4)" />
    </g>
  </g>
</svg>
