<?xml version="1.0" encoding="UTF-8" standalone="no"?>
<!-- Created with Inkscape (http://www.inkscape.org/) -->

<svg
   width="140.21626mm"
   height="125.6079mm"
   viewBox="0 0 140.21627 125.60789"
   version="1.1"
   id="svg1"
   inkscape:version="1.4.4 (dcaf3e7d9e, 2026-05-05)"
   sodipodi:docname="quatrex_logo.svg"
   inkscape:export-filename="quatrex_logo_text_light.svg"
   inkscape:export-xdpi="200"
   inkscape:export-ydpi="200"
   xmlns:inkscape="http://www.inkscape.org/namespaces/inkscape"
   xmlns:sodipodi="http://sodipodi.sourceforge.net/DTD/sodipodi-0.dtd"
   xmlns="http://www.w3.org/2000/svg"
   xmlns:svg="http://www.w3.org/2000/svg">
  <sodipodi:namedview
     id="namedview1"
     pagecolor="#000000"
     bordercolor="#666666"
     borderopacity="1.0"
     inkscape:showpageshadow="2"
     inkscape:pageopacity="0.0"
     inkscape:pagecheckerboard="true"
     inkscape:deskcolor="#d1d1d1"
     inkscape:document-units="mm"
     inkscape:zoom="0.41098923"
     inkscape:cx="-156.93842"
     inkscape:cy="148.42238"
     inkscape:window-width="1920"
     inkscape:window-height="1131"
     inkscape:window-x="0"
     inkscape:window-y="0"
     inkscape:window-maximized="1"
     inkscape:current-layer="layer1"
     inkscape:export-bgcolor="#ffffff00">
    <inkscape:page
       x="0"
       y="0"
       width="140.21626"
       height="125.60789"
       id="page2"
       margin="0"
       bleed="0" />
  </sodipodi:namedview>
  <defs
     id="defs1">
    <clipPath
       clipPathUnits="userSpaceOnUse"
       id="clipPath3">
      <path
         id="path3"
         style="fill:#ffffff;fill-opacity:1;stroke-width:1"
         d="m 1152.5162,1144.6366 v 223.7365 h 174.9133 l -50.6699,-18.6107 c -18.4735,-6.7838 -32.8059,-24.3126 -32.8059,-46.9229 0,-28.5331 21.3863,-49.9212 49.9194,-49.9212 26.5072,0 46.3699,19.1737 49.501,43.302 l 8.6264,66.4483 9.0427,5.7045 h 46.5887 v -223.7365 z"
         inkscape:label="mask" />
    </clipPath>
    <clipPath
       clipPathUnits="userSpaceOnUse"
       id="clipPath4">
      <path
         id="path4"
         style="fill:#ffffff;fill-opacity:1;stroke-width:1"
         d="m 79.16342,45.492761 v 7.831569 c 1.324549,-3.680309 4.151939,-6.507631 7.83259,-7.831569 z m 17.449059,0 c 4.701281,1.713219 7.980281,5.912548 8.626351,10.891329 l 2.33422,17.98029 15.33188,9.67177 c 1.38078,0.871119 2.54876,2.119749 3.28249,3.647839 V 45.492761 Z m -4.768178,2.8267 c -6.013871,0 -9.855221,3.84184 -9.855221,9.855729 0,4.606621 2.78034,7.90978 6.4823,9.269201 l 15.24609,5.597588 -2.09961,-16.187118 c -0.63412,-4.886751 -4.302859,-8.5354 -9.773559,-8.5354 z M 79.16342,62.89015 v 36.25102 h 35.55338 c -2.13561,-1.02226 -3.71551,-2.88503 -4.45657,-4.972309 l -6.05648,-17.05632 -16.990181,-6.240452 c -3.62054,-1.329518 -6.65307,-4.18411 -8.050149,-7.981939 z m 29.78268,16.657899 4.75578,13.398151 c 0.65598,1.847649 2.31011,3.369299 4.69739,3.369299 1.60711,0 2.79185,-0.51676 3.6189,-1.343588 0.82704,-0.826842 1.34358,-2.011651 1.34358,-3.61941 0,-2.000901 -0.87425,-3.260212 -2.40605,-4.226621 z m 17.24132,15.7148 c -0.39614,0.858851 -0.92896,1.632961 -1.58698,2.290821 -0.65807,0.657889 -1.43284,1.191329 -2.29185,1.5875 h 3.87883 z"
         inkscape:label="mask" />
    </clipPath>
  </defs>
  <g
     inkscape:label="Layer 1"
     inkscape:groupmode="layer"
     id="layer1"
     transform="translate(-277.26178,-247.76305)">
    <path
       d="m 284.36975,347.37658 q 2.89773,0 4.63637,2.14773 l 0.23864,-1.63636 h 3.92046 v 25.483 l -4.50001,-0.47727 v -8.72729 q -0.86932,1.07386 -2.06251,1.6875 -1.17613,0.59659 -2.72727,0.59659 -2.35228,0 -3.81819,-1.17614 -1.44887,-1.19318 -2.13069,-3.34091 -0.66477,-2.14773 -0.66477,-5.04547 0,-2.74432 0.81818,-4.89205 0.83523,-2.16478 2.42046,-3.39205 1.58523,-1.22728 3.86933,-1.22728 z m 1.15909,3.35796 q -1.73864,0 -2.6591,1.48296 -0.92045,1.46591 -0.92045,4.68751 0,3.4091 0.85227,4.77274 0.85228,1.34659 2.38637,1.34659 1.14205,0 1.99432,-0.64773 0.85228,-0.64773 1.48296,-1.65341 v -8.21593 q -0.59659,-0.83523 -1.38069,-1.29545 -0.76704,-0.47728 -1.75568,-0.47728 z m 17.62505,-2.84659 v 12.51138 q 0,1.46592 0.57954,2.06251 0.57955,0.59659 1.68751,0.59659 1.05682,0 2.0625,-0.63068 1.00569,-0.64773 1.63637,-1.63637 v -12.90343 h 4.50001 v 18.05117 h -3.92047 l -0.23863,-2.21592 q -0.97159,1.32955 -2.48864,2.02842 -1.51705,0.69886 -3.13637,0.69886 -2.60796,0 -3.90342,-1.46591 -1.27841,-1.48296 -1.27841,-4.03978 v -13.05684 z m 30.35803,13.29548 q 0,1.03977 0.30681,1.51704 0.30682,0.47728 0.98864,0.69887 l -0.97159,3.01705 q -1.43182,-0.15341 -2.45455,-0.71591 -1.02273,-0.57955 -1.56819,-1.72159 -1.02272,1.24432 -2.59091,1.85795 -1.55114,0.61364 -3.25569,0.61364 -2.76137,0 -4.38069,-1.56818 -1.61932,-1.56819 -1.61932,-4.07387 0,-2.88069 2.25001,-4.43183 2.26704,-1.56819 6.4091,-1.56819 h 2.52273 v -0.97159 q 0,-1.60227 -1.00568,-2.31819 -0.98864,-0.73295 -2.82955,-0.73295 -0.86932,0 -2.18183,0.23864 -1.3125,0.22159 -2.67614,0.69886 l -1.07386,-3.08523 q 1.72159,-0.64773 3.46023,-0.95455 1.75569,-0.30682 3.18751,-0.30682 3.80114,0 5.64205,1.61932 1.84092,1.60228 1.84092,4.55115 z m -8.07957,2.01136 q 1.02273,0 2.06251,-0.5625 1.03977,-0.57954 1.65341,-1.63636 v -3.51137 h -1.77273 q -2.50569,0 -3.63069,0.80113 -1.10796,0.80114 -1.10796,2.26705 0,2.64205 2.79546,2.64205 z m 29.71031,1.73864 q -1.00569,0.66478 -2.43751,1.09091 -1.43182,0.42614 -3.10228,0.42614 -3.30682,0 -4.97728,-1.70455 -1.67046,-1.72159 -1.67046,-4.56819 v -9.10229 h -3.92046 v -3.1875 h 3.92046 v -3.9716 l 4.50001,-0.54546 v 4.51706 h 5.96592 l -0.46023,3.1875 h -5.50569 v 9.08525 q 0,1.39773 0.68182,2.04546 0.68182,0.64772 2.19887,0.64772 0.97159,0 1.77273,-0.22159 0.81818,-0.23863 1.48296,-0.59659 z m 5.04547,1.00569 v -3.11933 h 2.53978 v -11.82957 h -2.53978 v -3.10227 h 5.96592 l 0.83523,4.14205 q 0.98864,-2.2841 2.48864,-3.46023 1.50001,-1.17614 3.76706,-1.17614 0.86932,0 1.53409,0.13636 0.66477,0.13636 1.29546,0.35796 l -0.80114,7.03978 h -3.00001 v -3.52841 q -1.75568,0.15341 -3.03409,1.60227 -1.27842,1.43182 -2.01137,3.7841 v 6.0341 h 3.5966 v 3.11933 z m 24.11938,-7.65343 q 0.20455,2.53978 1.5,3.66478 1.29546,1.12501 3.15342,1.12501 1.29545,0 2.4375,-0.4091 1.14205,-0.40909 2.25001,-1.14204 l 1.875,2.57386 q -1.26137,1.05683 -3.01705,1.70455 -1.73864,0.64773 -3.83524,0.64773 -2.93182,0 -4.94319,-1.21023 -1.99432,-1.21023 -3.01705,-3.35796 -1.02273,-2.14773 -1.02273,-4.94319 0,-2.69319 0.98864,-4.85796 1.00568,-2.16478 2.89773,-3.42615 1.9091,-1.27841 4.58524,-1.27841 3.71592,0 5.89774,2.42046 2.18182,2.42046 2.18182,6.69888 0,0.98864 -0.0852,1.78977 z m 3.86932,-7.73865 q -1.63636,0 -2.69318,1.17614 -1.03978,1.17614 -1.22728,3.68183 h 7.60229 q -0.0341,-2.2841 -0.9375,-3.56251 -0.90341,-1.29546 -2.74433,-1.29546 z m 16.09097,15.39208 h -4.92615 l 6.34092,-9.49434 -5.69319,-8.55683 h 5.11364 l 3.34092,6.10228 3.28978,-6.10228 h 4.87501 l -5.48865,8.36933 6.35797,9.68184 h -5.18183 l -4.05683,-7.09093 z"
       id="text4-9-2"
       style="font-weight:600;font-size:33.2387px;line-height:1.25;font-family:'Fira Code';-inkscape-font-specification:'Fira Code, Semi-Bold';letter-spacing:0px;word-spacing:0px;fill:#0b0c0f;stroke:none;stroke-width:1.43345"
       inkscape:label="quatrex"
       aria-label="quatrex" />
    <path
       d="M 371.4197,305.20653 387.26387,277.76329 371.4197,250.32005"
       style="fill:none;stroke:#2081b9;stroke-width:5.114;stroke-linecap:round;stroke-linejoin:round;stroke-miterlimit:3.9;stroke-dasharray:none;stroke-dashoffset:12.7729;stroke-opacity:1"
       id="path1"
       sodipodi:nodetypes="ccc"
       inkscape:label="chevron" />
    <path
       id="path2-7"
       transform="matrix(0.27059076,0,0,0.27059076,-7.2117019,-62.235315)"
       mask="none"
       d="m 1397.1834,1256.5049 -58.5548,101.4199 h -117.1095 l -58.5548,-101.4199 58.5548,-101.4199 h 117.1095 z"
       style="fill:none;fill-opacity:1;stroke:#0b0c0f;stroke-width:18.8973;stroke-linecap:round;stroke-linejoin:round;stroke-miterlimit:3.9;stroke-dasharray:none;stroke-dashoffset:12.7729;stroke-opacity:1"
       inkscape:label="hexagon-clipped"
       clip-path="url(#clipPath3)" />
    <path
       id="path7-8-7-7-1"
       style="fill:#2081b9;fill-opacity:1;fill-rule:nonzero;stroke:none;stroke-width:3.65206;stroke-miterlimit:3.9;stroke-dasharray:none;stroke-opacity:1"
       d="m 91.845007,46.492988 c -6.86733,0 -11.68182,4.814487 -11.68182,11.681825 0,5.362378 3.32908,9.386208 7.67945,10.983741 l 17.795633,6.534916 6.34303,17.86484 c 0.88836,2.502175 3.23451,4.582618 6.41748,4.582618 4.04121,0 6.78861,-2.745385 6.78861,-6.788199 0,-2.610477 -1.30718,-4.541338 -3.25682,-5.771358 L 105.87152,75.449996 103.42819,56.619862 C 102.68751,50.91204 98.166657,46.492988 91.845007,46.492988 Z"
       sodipodi:nodetypes="ssssssssss"
       mask="none"
       transform="translate(251.05409,232.12583)"
       inkscape:label="orbital-clipped"
       clip-path="url(#clipPath4)" />
  </g>
</svg>
